<mxfile host="65bd71144e">
    <diagram id="_siDAHYm-KRYosmacelw" name="Page-1">
        <mxGraphModel dx="1804" dy="922" grid="1" gridSize="10" guides="1" tooltips="1" connect="1" arrows="1" fold="1" page="1" pageScale="1" pageWidth="850" pageHeight="1100" math="0" shadow="0">
            <root>
                <mxCell id="0"/>
                <mxCell id="1" parent="0"/>
                <mxCell id="10" style="edgeStyle=none;html=1;entryX=0;entryY=0.5;entryDx=0;entryDy=0;" parent="1" source="2" target="3" edge="1">
                    <mxGeometry relative="1" as="geometry"/>
                </mxCell>
                <mxCell id="2" value="USERS&lt;br&gt;id(primary-key)&lt;br&gt;name&lt;br&gt;email&lt;br&gt;password&lt;br&gt;created_at&lt;br&gt;updatet_at" style="whiteSpace=wrap;html=1;" parent="1" vertex="1">
                    <mxGeometry x="70" y="40" width="120" height="230" as="geometry"/>
                </mxCell>
                <mxCell id="11" style="edgeStyle=none;html=1;" parent="1" source="3" edge="1">
                    <mxGeometry relative="1" as="geometry">
                        <mxPoint x="190" y="155.0000000000001" as="targetPoint"/>
                    </mxGeometry>
                </mxCell>
                <mxCell id="12" style="edgeStyle=none;html=1;entryX=0;entryY=0.5;entryDx=0;entryDy=0;" parent="1" source="3" target="5" edge="1">
                    <mxGeometry relative="1" as="geometry"/>
                </mxCell>
                <mxCell id="3" value="ORDERS&lt;br&gt;ID(pk)&lt;br&gt;user_id&lt;br&gt;total_price&lt;br&gt;status&lt;br&gt;created_at&lt;br&gt;updated_at" style="whiteSpace=wrap;html=1;" parent="1" vertex="1">
                    <mxGeometry x="310" y="40" width="120" height="230" as="geometry"/>
                </mxCell>
                <mxCell id="13" style="edgeStyle=none;html=1;entryX=1;entryY=0.5;entryDx=0;entryDy=0;" parent="1" source="5" target="3" edge="1">
                    <mxGeometry relative="1" as="geometry"/>
                </mxCell>
                <mxCell id="5" value="ORDERITEMS&lt;br&gt;ID(pk)&lt;br&gt;order_id&lt;br&gt;game_id&lt;br&gt;quantity&lt;br&gt;price&lt;br&gt;created_at&lt;br&gt;updated_at" style="whiteSpace=wrap;html=1;" parent="1" vertex="1">
                    <mxGeometry x="550" y="40" width="120" height="230" as="geometry"/>
                </mxCell>
                <mxCell id="14" style="edgeStyle=none;html=1;entryX=1;entryY=0.5;entryDx=0;entryDy=0;" parent="1" source="6" target="5" edge="1">
                    <mxGeometry relative="1" as="geometry"/>
                </mxCell>
                <mxCell id="15" style="edgeStyle=none;html=1;entryX=0;entryY=0.5;entryDx=0;entryDy=0;" parent="1" source="6" target="7" edge="1">
                    <mxGeometry relative="1" as="geometry"/>
                </mxCell>
                <mxCell id="6" value="REVIEWS&lt;br&gt;ID(PK)&lt;br&gt;game_id&lt;br&gt;user_id&lt;br&gt;reating&lt;br&gt;comment&lt;br&gt;created_at&lt;br&gt;updated_at" style="whiteSpace=wrap;html=1;" parent="1" vertex="1">
                    <mxGeometry x="790" y="40" width="120" height="230" as="geometry"/>
                </mxCell>
                <mxCell id="16" style="edgeStyle=none;html=1;entryX=1;entryY=0.5;entryDx=0;entryDy=0;" parent="1" source="7" target="6" edge="1">
                    <mxGeometry relative="1" as="geometry">
                        <mxPoint x="910" y="160.0000000000001" as="targetPoint"/>
                    </mxGeometry>
                </mxCell>
                <mxCell id="24" style="edgeStyle=none;html=1;" edge="1" parent="1" source="7">
                    <mxGeometry relative="1" as="geometry">
                        <mxPoint x="510" y="390" as="targetPoint"/>
                    </mxGeometry>
                </mxCell>
                <mxCell id="7" value="CATEGORIES&lt;br&gt;ID(PK)&lt;br&gt;name&lt;br&gt;created_at&lt;br&gt;updated_at" style="whiteSpace=wrap;html=1;" parent="1" vertex="1">
                    <mxGeometry x="1040" y="40" width="120" height="230" as="geometry"/>
                </mxCell>
                <mxCell id="17" value="GAME CATEOGRY&lt;br&gt;ID(PK)&lt;br&gt;game_id&lt;br&gt;category_id" style="whiteSpace=wrap;html=1;" parent="1" vertex="1">
                    <mxGeometry x="230" y="400" width="490" height="330" as="geometry"/>
                </mxCell>
                <mxCell id="23" value="Users a Orders: un utente può avere molti ordini 1 a molti&lt;br&gt;&lt;br&gt;Orders a OrderItems: un ordire può avere molti elementi d'ordine 1 a molti&lt;br&gt;&lt;br&gt;&amp;nbsp;OrderItems a Games: un elemento è relativo a un gioco&lt;br&gt;&lt;br&gt;Users a Reviews : un utente può scrivere molte recensioni 1 a molti&lt;br&gt;&lt;br&gt;Games a Reviews: un gioco può avere molte renecnsioni 1 a molti&lt;br&gt;&lt;br&gt;Games a Categories: un gioco può appartenere a molte categorie e una categoria può includere&amp;nbsp;&lt;br&gt;&lt;br&gt;molti giochi (molti a molti) , gestito tramite la tabella GameCategory." style="whiteSpace=wrap;html=1;" parent="1" vertex="1">
                    <mxGeometry x="810" y="400" width="530" height="330" as="geometry"/>
                </mxCell>
            </root>
        </mxGraphModel>
    </diagram>
</mxfile>